<svg width="548" height="275" viewBox="0 0 548 275" fill="none" xmlns="http://www.w3.org/2000/svg">
<path d="M0 0H547.858V274.28H0V0Z" fill="#3394D1"/>
<path d="M189.218 112.213V134.833C189.218 140.19 187.804 144.357 185.051 147.482C182.224 150.607 178.503 152.095 173.816 152.095C171.36 152.095 169.128 151.574 167.045 150.533C164.961 149.491 163.25 148.003 161.762 146.068C160.199 148.077 158.414 149.565 156.405 150.607C154.396 151.649 152.163 152.095 149.782 152.095C145.095 152.095 141.3 150.533 138.473 147.408C135.645 144.357 134.231 140.116 134.231 134.833V112.213H141.226V136.098C141.226 138.851 141.97 141.083 143.532 142.794C145.095 144.506 147.178 145.324 149.708 145.324C152.238 145.324 154.321 144.506 155.884 142.794C157.446 141.083 158.265 138.851 158.265 136.098V112.213H165.185V136.098C165.185 138.851 165.929 141.083 167.491 142.794C169.054 144.506 171.137 145.324 173.667 145.324C176.197 145.324 178.206 144.506 179.768 142.794C181.331 141.083 182.149 138.851 182.149 136.098V112.213H189.218Z" fill="white"/>
<path d="M223.371 151.352V131.857C223.371 127.765 222.18 124.416 219.873 121.887C217.567 119.357 214.516 118.092 210.87 118.092C207.224 118.092 204.174 119.357 201.793 121.887C199.412 124.416 198.221 127.616 198.221 131.634C198.221 135.652 199.412 139 201.867 141.604C204.322 144.209 207.373 145.473 211.168 145.473C212.879 145.473 214.516 145.176 216.153 144.581C217.79 143.985 219.353 143.092 220.99 141.828V149.343C219.427 150.236 217.716 150.905 215.93 151.352C214.144 151.798 212.284 152.021 210.349 152.021C208.489 152.021 206.629 151.724 204.769 151.128C202.909 150.533 201.272 149.715 199.784 148.747C196.956 146.813 194.798 144.357 193.31 141.456C191.822 138.554 191.078 135.28 191.078 131.708C191.078 125.83 192.938 120.994 196.659 117.199C200.379 113.404 205.067 111.47 210.721 111.47C214.442 111.47 217.939 112.437 221.064 114.297C224.189 116.157 226.57 118.762 228.281 122.11C229.025 123.598 229.621 125.235 229.918 127.021C230.216 128.806 230.439 131.411 230.439 134.982V151.426H223.371V151.352Z" fill="white"/>
<path d="M241.525 94.2075H234.531V151.426H241.525V94.2075Z" fill="white"/>
<path d="M246.362 151.352V94.2075H253.357V126.426H256.482C258.491 126.426 260.128 125.979 261.392 125.161C262.657 124.342 263.997 122.705 265.485 120.25L270.47 112.139H278.655L272.925 121.44C271.884 123.152 270.916 124.491 269.949 125.607C268.982 126.723 268.015 127.467 267.122 127.914C270.321 128.509 272.702 129.848 274.265 131.857C275.827 133.866 276.571 136.768 276.571 140.488V151.277H269.503V141.456C269.503 138.628 268.907 136.545 267.643 135.28C266.378 133.941 264.443 133.271 261.764 133.271H253.431V151.352H246.362Z" fill="white"/>
<path fill-rule="evenodd" clip-rule="evenodd" d="M386.916 90.8594H307.599C292.866 90.8594 280.887 102.839 280.887 117.571V143.316C280.887 158.048 292.866 170.028 307.599 170.028H328.135L346.96 183.421L365.785 170.028H386.916C401.648 170.028 413.628 158.048 413.628 143.316V117.571C413.628 102.839 401.723 90.8594 386.916 90.8594Z" fill="white"/>
<path d="M299.042 150.534V127.84C299.042 122.483 300.456 118.316 303.209 115.191C306.036 112.066 309.757 110.578 314.519 110.578C316.974 110.578 319.206 111.099 321.215 112.141C323.299 113.182 325.01 114.67 326.498 116.605C328.061 114.596 329.846 113.108 331.855 112.066C333.864 111.025 336.096 110.578 338.552 110.578C343.239 110.578 346.96 112.141 349.787 115.266C352.615 118.391 354.028 122.558 354.028 127.84V150.46H347.109V126.576C347.109 123.822 346.29 121.59 344.728 119.953C343.165 118.242 341.082 117.424 338.552 117.424C336.022 117.424 333.939 118.242 332.376 119.953C330.814 121.665 329.995 123.822 329.995 126.576V150.534H323.075V126.576C323.075 123.822 322.257 121.59 320.694 119.953C319.132 118.242 317.048 117.424 314.519 117.424C311.989 117.424 309.905 118.242 308.343 119.953C306.78 121.665 306.036 123.822 306.036 126.576V150.534H299.042Z" fill="#3394D1"/>
<path d="M395.473 133.198C394.505 138.778 392.199 143.243 388.702 146.442C385.13 149.716 380.815 151.353 375.755 151.353C374.044 151.353 372.332 151.13 370.621 150.683C368.91 150.237 367.347 149.567 365.859 148.6C362.734 146.665 360.278 144.21 358.567 141.085C356.856 137.96 355.963 134.611 355.963 130.891C355.963 128.138 356.484 125.608 357.451 123.153C358.418 120.697 359.906 118.465 361.767 116.531C363.627 114.596 365.785 113.108 368.24 112.066C370.621 111.025 373.151 110.578 375.829 110.578C379.773 110.578 383.344 111.62 386.47 113.703C389.595 115.787 392.124 118.837 394.059 122.855L368.389 136.992L365.413 131.71L384.461 121.069C383.27 119.73 382.005 118.763 380.517 118.093C379.029 117.424 377.466 117.126 375.755 117.126C372.258 117.126 369.282 118.465 366.901 121.069C364.52 123.674 363.255 126.948 363.255 130.817C363.255 134.686 364.445 137.885 366.901 140.49C369.356 143.094 372.258 144.433 375.755 144.433C379.103 144.433 381.856 143.317 384.089 141.159C386.321 138.927 387.734 135.951 388.33 132.082L395.473 133.198Z" fill="#3394D1"/>
</svg>
