<?xml version="1.0" encoding="utf-8"?>
<!-- Generator: Adobe Illustrator 26.3.1, SVG Export Plug-In . SVG Version: 6.00 Build 0)  -->
<svg version="1.1" id="a" xmlns="http://www.w3.org/2000/svg" xmlns:xlink="http://www.w3.org/1999/xlink" x="0px" y="0px"
	 viewBox="0 0 548 275" style="enable-background:new 0 0 548 275;" xml:space="preserve">
<style type="text/css">
	.st0{fill:#0137FF;}
	.st1{fill:#FE5E00;}
	.st2{fill:#FFFFFF;}
</style>
<path class="st0" d="M0.1,1h547.9v274.3H0.1V1z"/>
<g>
	<path class="st2" d="M107.8,138.6v11c8.4,0,16.4-3.2,22.4-9c5.9-5.7,9.3-13.5,9.3-21.7h-11.3c0,5.2-2.1,10.2-5.9,13.9
		C118.4,136.5,113.2,138.6,107.8,138.6z"/>
	<path class="st2" d="M107.8,168.9c-5.3,0-10.5-2.1-14.2-5.7c-3.8-3.7-5.9-8.6-5.9-13.8c0-5.2,2.1-10.1,5.9-13.8
		c3.8-3.7,8.9-5.7,14.2-5.7v-10.9c-4.1,0-8.2,0.8-12,2.3c-3.8,1.5-7.3,3.8-10.2,6.6c-2.9,2.8-5.2,6.2-6.8,9.9
		c-1.6,3.7-2.4,7.6-2.4,11.6c0,4,0.8,8,2.4,11.7c1.6,3.7,3.9,7.1,6.8,9.9c2.9,2.8,6.4,5.1,10.2,6.6c3.8,1.5,7.9,2.3,12,2.3h0.1
		V168.9z"/>
	<path class="st2" d="M107.8,168.9v10.9c8.3,0,16.3-3.2,22.2-8.9c5.9-5.7,9.2-13.5,9.2-21.5H128c0,5.2-2.1,10.1-5.9,13.8
		C118.3,166.8,113.2,168.9,107.8,168.9z"/>
	<path class="st2" d="M107.8,108v10.9c8.3,0,16.3-3.2,22.2-8.9c5.9-5.7,9.2-13.5,9.2-21.5H128c0,5.2-2.1,10.1-5.9,13.8
		C118.3,106,113.2,108,107.8,108z"/>
	<path class="st2" d="M139.4,108v10.9c8.3,0,16.3-3.2,22.2-8.9c5.9-5.7,9.2-13.5,9.2-21.5h-11.3c0,5.2-2.1,10.1-5.9,13.8
		C149.9,106,144.8,108,139.4,108z"/>
	<g>
		<path class="st2" d="M223.3,134.1h5.8l1.4,3c0.7-0.6,1.5-1.2,2.4-1.7c0.9-0.4,1.8-0.8,2.8-1.1c1.2-0.4,2.4-0.5,3.7-0.5
			c1.9,0,3.8,0.4,5.6,1.1c1.8,0.8,3.4,1.9,4.7,3.2c1.4,1.4,2.5,3.1,3.2,4.9c1.6,4,1.6,8.4,0,12.4c-0.7,1.8-1.8,3.5-3.2,4.9
			c-1.3,1.4-2.9,2.5-4.7,3.2c-1.8,0.8-3.7,1.2-5.6,1.2c-1.2,0-2.3-0.1-3.4-0.5c-0.9-0.3-1.7-0.6-2.6-1c-0.8-0.4-1.5-0.9-2.2-1.5V175
			h-7.8V134.1z M238.3,157.5c1,0,2.1-0.2,3-0.6c1-0.4,1.8-1,2.6-1.7c1.5-1.5,2.3-3.5,2.3-6c0.1-1.1-0.1-2.2-0.5-3.2
			c-0.4-1-1-2-1.8-2.8c-0.7-0.7-1.6-1.3-2.6-1.7c-1-0.4-2-0.6-3-0.6s-2.1,0.2-3,0.6c-1,0.4-1.8,0.9-2.6,1.7c-1.5,1.5-2.2,3.5-2.2,6
			c0,2.5,0.7,4.5,2.2,6c0.7,0.7,1.6,1.3,2.6,1.7C236.2,157.4,237.2,157.6,238.3,157.5L238.3,157.5z"/>
		<path class="st2" d="M272.7,164.8c-1.5,0-2.9-0.2-4.3-0.8c-1.3-0.5-2.4-1.2-3.3-2.2c-0.9-1-1.7-2.2-2.2-3.4
			c-0.5-1.4-0.8-3-0.8-4.5V141h-4.8v-6.3h2c2.5,0,3.8-1.2,3.8-3.6v-4.3h6.8v7.3h6.8v6.9H270v12.6c0,0.5,0,1,0.2,1.5
			c0.2,0.5,0.4,1,0.8,1.4c0.4,0.4,0.8,0.7,1.3,1c0.5,0.2,1,0.4,1.5,0.4c0.2,0,0.4,0,0.6,0c0.3,0,0.6,0,0.9,0c0.2,0,0.4,0,0.6-0.1
			c0.2,0,0.4-0.1,0.5-0.2v6.6c-0.4,0.1-0.7,0.3-1.1,0.3C274.5,164.8,273.6,164.8,272.7,164.8L272.7,164.8z"/>
		<path class="st2" d="M287.4,130.4c-1.1,0-2.1-0.3-2.9-0.9c-0.8-0.6-1.4-1.5-1.6-2.5c-0.2-1-0.1-2,0.4-3c0.5-0.9,1.3-1.6,2.2-2
			c1-0.4,2.1-0.5,3.1-0.2c1,0.3,1.9,0.9,2.5,1.8c0.6,0.8,0.9,1.9,0.8,2.9c-0.1,1-0.6,2-1.3,2.7c-0.4,0.4-0.9,0.7-1.4,1
			C288.6,130.3,288,130.4,287.4,130.4z M283.3,134.1h7.8v30.4h-7.8V134.1z"/>
		<path class="st2" d="M298.6,134.1h5.8l1.4,3c0.6-0.6,1.4-1.2,2.1-1.7c0.7-0.4,1.5-0.8,2.3-1.1c1-0.4,2-0.5,3.1-0.5
			c1.4,0,2.8,0.2,4.1,0.6c1,0.3,1.9,0.8,2.8,1.4c0.8,0.5,1.5,1.2,2,2c0.7-0.8,1.6-1.4,2.5-2c0.9-0.5,1.9-1,2.9-1.4
			c1.2-0.4,2.5-0.6,3.7-0.6c3.4,0,6.1,1.1,8.2,3.2s3.1,5.2,3.1,9.4v18.2h-7.9V147c0.1-1.6-0.5-3.1-1.5-4.3c-0.4-0.5-0.9-0.8-1.5-1.1
			c-0.6-0.3-1.2-0.4-1.8-0.5c-0.6,0-1.2,0-1.8,0.2c-0.6,0.2-1.1,0.5-1.6,0.9c-0.2,0.1-0.3,0.3-0.5,0.5c-1.1,1.2-1.6,2.8-1.5,4.3
			v17.5h-7.9V147c0.1-1.6-0.5-3.1-1.5-4.3c-0.4-0.5-0.9-0.8-1.5-1.1s-1.2-0.4-1.8-0.5c-0.6,0-1.2,0-1.8,0.2s-1.1,0.5-1.6,0.9
			c-0.2,0.1-0.3,0.3-0.5,0.5c-1.1,1.2-1.6,2.8-1.5,4.3v17.5h-7.8L298.6,134.1z"/>
		<path class="st2" d="M353.9,130.4c-1.1,0-2.1-0.3-2.9-0.9c-0.8-0.6-1.4-1.5-1.6-2.5c-0.2-1-0.1-2.1,0.4-3c0.5-0.9,1.3-1.6,2.3-2
			c1-0.4,2.1-0.5,3.1-0.2s1.9,0.9,2.5,1.8c0.6,0.8,0.9,1.9,0.8,2.9c-0.1,1-0.6,2-1.3,2.7c-0.4,0.4-0.9,0.7-1.4,1
			C355.1,130.3,354.5,130.4,353.9,130.4L353.9,130.4z M349.8,134.1h7.9v30.4h-7.9V134.1z"/>
		<path class="st2" d="M363.4,158.2l13.6-16.9h-13.6v-7.3H387v6.3l-13.6,16.9h14.3v7.3h-24.2V158.2z"/>
		<path class="st2" d="M407.5,164.8c-2.1,0-4.1-0.4-6-1.2c-1.9-0.8-3.6-1.9-5-3.3c-1.4-1.4-2.6-3.1-3.4-4.9c-0.8-1.9-1.3-4-1.3-6.1
			s0.4-4.1,1.3-6.1c0.8-1.8,2-3.5,3.4-4.9c1.4-1.4,3.1-2.5,5-3.3c1.9-0.8,3.9-1.2,5.9-1.2c2,0,4.1,0.4,5.9,1.1
			c1.8,0.7,3.4,1.8,4.8,3.2c1.4,1.4,2.5,3.1,3.2,4.9c0.8,2,1.2,4.2,1.2,6.3c0,0.3,0,0.7-0.1,1c-0.1,0.3-0.1,0.7-0.1,1
			c0,0.3-0.1,0.7-0.1,1h-21.8c0.3,1.5,1.2,2.8,2.3,3.8c1.4,1.1,3.1,1.6,4.8,1.5c0.9,0,1.8-0.1,2.6-0.3c0.6-0.2,1.2-0.5,1.8-0.8
			c0.5-0.3,1-0.7,1.4-1.2h8.2c-0.5,1.2-1.1,2.4-1.9,3.4c-0.9,1.2-1.9,2.2-3.1,3.1c-1.2,0.9-2.6,1.7-4.1,2.2
			C410.8,164.5,409.2,164.8,407.5,164.8z M415,147c-0.3-1.7-1.3-3.2-2.6-4.3c-1.4-1.1-3.1-1.7-4.9-1.7c-1.8,0-3.5,0.6-4.9,1.7
			c-1.4,1.1-2.3,2.6-2.6,4.3H415z"/>
		<path class="st2" d="M428.3,122.8h7.8v41.7h-7.8V122.8z"/>
		<path class="st2" d="M448,175.4c-0.4,0-0.7,0-1.1,0c-0.3,0-0.6,0-0.9-0.1c-0.3,0-0.6-0.1-0.8-0.2v-6.3c1.4,0.1,2.8-0.3,4-1.1
			c0.9-0.8,1.7-1.7,2.2-2.8l0.7-1.7l-11.9-29.1h8.2l7.8,19.8l7.2-19.8h8.2c-2.2,5.6-4.3,10.6-6.1,15.1c-0.8,1.9-1.5,3.8-2.3,5.7
			c-0.7,1.8-1.4,3.5-2,5.1c-0.6,1.5-1.1,2.8-1.5,3.8c-0.4,1-0.6,1.6-0.7,1.8c-0.7,1.6-1.4,3.1-2.3,4.6c-0.6,1.1-1.5,2.2-2.4,3.1
			c-0.8,0.8-1.7,1.3-2.8,1.7C450.4,175.2,449.2,175.4,448,175.4L448,175.4z"/>
		<path class="st2" d="M194.2,118.9c-4.7,0-9.3,1.3-13.1,3.9c-3.9,2.5-6.9,6.1-8.7,10.3c-1.8,4.2-2.3,8.8-1.3,13.3
			c0.9,4.4,3.2,8.5,6.5,11.7c3.3,3.2,7.5,5.4,12.1,6.3c4.6,0.9,9.3,0.4,13.7-1.3c4.3-1.7,8-4.7,10.6-8.4c2.6-3.8,4-8.2,4-12.7
			c0-3-0.6-6-1.8-8.8c-1.2-2.8-2.9-5.3-5.1-7.4c-2.2-2.1-4.8-3.8-7.7-5C200.4,119.5,197.3,118.9,194.2,118.9z M194.2,156.8
			c-3.1,0-6.1-0.8-8.6-2.4c-2.6-1.6-4.6-3.9-5.8-6.7c-1.2-2.7-1.5-5.7-1-8.7c0.6-2.9,2-5.6,4.1-7.7c2.1-2.1,4.9-3.6,7.9-4.2
			c3-0.6,6.1-0.3,8.9,0.8c2.8,1.1,5.3,3,7,5.5c1.7,2.5,2.7,5.3,2.7,8.3v0.2c0,3.9-1.6,7.7-4.4,10.5S198.3,156.8,194.2,156.8
			L194.2,156.8z"/>
	</g>
</g>
</svg>
