<?xml version="1.0" encoding="UTF-8"?><svg id="a" xmlns="http://www.w3.org/2000/svg" viewBox="0 0 548 275"><defs><style>.b{fill:#002133;}.c{fill:#fff;}</style></defs><path class="b" d="M0,0H547.86V274.28H0V0Z"/><path class="c" d="M229.47,142.94v-37.68h7.99v13.7c1.83-.46,3.65-.69,5.48-.69,5.02,0,8.91,1.6,11.42,4.57s4.11,7.54,4.11,13.24c0,2.74-.46,5.71-1.14,8.45-.68,2.51-1.83,4.34-2.74,5.48-1.14,1.14-2.28,2.28-3.88,2.97-1.14,.68-2.51,1.14-3.88,1.37-1.14,.23-2.28,.23-3.43,.23-4.8,0-8.45-1.14-10.73-3.43-2.05-2.06-3.2-5.25-3.2-8.22Zm7.99,.69c0,2.51,2.06,3.88,5.94,3.88,2.51,0,4.34-.91,5.48-2.74s1.6-4.8,1.6-9.13c0-3.88-.68-6.85-2.06-8.45-1.37-1.6-3.2-2.28-5.71-2.28-1.83,0-3.43,.23-5.25,.69v18.04Zm21.92-24.89h8.68l7.54,24.66,7.31-24.66h7.99l-12.33,36.31c-1.83,5.25-3.65,8.68-5.94,10.5-2.28,1.83-4.34,2.74-6.62,2.74-1.83,0-3.43-.46-5.02-.91v-7.31c1.14,.46,2.51,.91,3.88,.91,2.28,0,4.57-2.97,6.39-8.68l-11.87-33.57Zm35.85,35.39v-31.97c4.8-2.51,10.05-3.88,15.3-3.88,4.57,0,8.45,1.37,10.96,3.88,2.51,2.51,3.88,6.17,3.88,10.73v21.24h-7.99v-21.92c0-.69,0-1.6-.23-2.28s-.46-1.37-.91-2.06c-.46-.69-1.37-1.14-2.51-1.6-1.37-.46-2.74-.46-4.34-.46-2.06,0-4.11,.23-6.17,.69v27.86l-7.99-.23Zm35.39-18.04c0-5.71,1.37-10.28,4.11-13.24,2.74-2.97,6.62-4.57,11.42-4.57,1.83,0,3.65,.23,5.48,.46v-13.7h7.99v37.68c0,3.2-1.14,6.17-3.43,8.45s-5.94,3.43-10.73,3.43c-1.14,0-2.28,0-3.43-.23-1.37-.23-2.74-.68-3.88-1.37-1.37-.68-2.74-1.83-3.88-2.97s-2.06-3.2-2.74-5.48c-.69-2.74-.91-5.48-.91-8.45h0Zm7.99-.46c0,4.11,.46,7.08,1.6,9.13,1.14,1.83,2.74,2.74,5.48,2.74,4.11,0,6.17-1.37,6.17-3.88v-18.04c-1.83-.46-3.43-.69-5.25-.69-2.51,0-4.34,.69-5.71,2.28-1.6,1.6-2.28,4.57-2.28,8.45Zm26.26,1.37c0-5.71,1.14-10.28,3.65-13.7,2.51-3.43,6.17-5.02,11.42-5.02s8.68,1.6,11.19,5.02c2.51,3.43,3.88,7.31,3.88,12.1,0,2.06,0,3.43-.23,4.34h-21.69c.23,2.97,1.14,5.02,2.51,6.17,1.6,1.14,3.43,1.6,5.94,1.6,3.88,0,7.99-.91,11.42-2.74v6.85c-3.65,2.06-7.99,3.2-12.56,3.2-1.37,0-2.74-.23-4.11-.46-1.37-.23-2.74-.91-4.11-1.6-1.37-.68-2.51-1.83-3.65-3.2-.91-1.14-1.83-2.97-2.51-5.25-.91-2.28-1.14-4.8-1.14-7.31h0Zm7.99-3.2h13.47c-.23-2.51-.91-4.57-2.06-6.17-.91-1.6-2.74-2.51-4.8-2.51s-3.65,.69-4.8,2.06-1.6,3.65-1.83,6.62Zm27.63,20.32v-32.2c.46-.23,1.37-.69,2.28-.91s2.97-.91,5.71-1.6c2.74-.69,5.71-1.14,8.68-1.14v7.31c-3.43,0-6.17,.46-8.68,1.14v27.4h-7.99Zm-212.58-49.32c7.99,0,15.3,4.57,18.5,11.87,3.2,7.08,2.06,15.53-3.2,21.46l-25.35,25.12c-3.2,3.2-7.54,5.02-12.33,5.02s-9.13-1.83-12.33-5.02l-1.83-1.83,8.68-8.45,1.83,1.83c.91,.91,2.28,1.6,3.65,1.6s2.74-.46,3.65-1.6l24.43-23.98c1.37-1.37,2.06-3.43,2.06-5.25,0-2.06-.91-4.34-2.28-5.71-1.6-1.6-3.65-2.51-5.71-2.51s-3.88,.69-5.48,2.06l-36.53,36.08-17.58-17.35c-3.43-3.65-5.25-8.45-5.25-13.24,0-7.99,4.8-15.3,12.33-18.5,7.54-3.2,15.98-1.83,21.92,3.65l2.51,2.51-8.68,8.45-1.83-1.83c-1.37-1.14-3.43-1.83-5.48-1.83-2.28,0-4.34,.91-5.94,2.28s-2.28,3.65-2.28,5.71,.69,3.88,2.06,5.48l7.76,7.76,27.4-26.94c3.88-4.34,9.36-6.85,15.3-6.85Z"/></svg>