<?xml version="1.0" encoding="utf-8"?>
<!-- Generator: Adobe Illustrator 26.3.1, SVG Export Plug-In . SVG Version: 6.00 Build 0)  -->
<svg version="1.1" id="a" xmlns="http://www.w3.org/2000/svg" xmlns:xlink="http://www.w3.org/1999/xlink" x="0px" y="0px"
	 viewBox="0 0 548 275" style="enable-background:new 0 0 548 275;" xml:space="preserve">
<style type="text/css">
	.st0{fill:#0137FF;}
	.st1{fill:#FE5E00;}
	.st2{fill:#FFFFFF;}
</style>
<path class="st1" d="M-0.2,0.4h547.9v274.3H-0.2V0.4z"/>
<g>
	<path class="st2" d="M134.1,141.2v-7.5l-6.8,0.3c-0.1-1.1-0.4-2.3-0.7-3.4l6.5-2.3l-2.9-6.9l-6.2,2.9c-0.6-1-1.3-2-2-2.9l5.1-4.5
		l-5.3-5.3l-4.6,5.1c-1-0.7-1.9-1.4-2.9-1.9l2.9-6.1l-7-2.9l-2.3,6.4c-1.1-0.3-2.3-0.5-3.4-0.7l0.4-6.8h-7.6l0.4,6.8
		c-1.2,0.1-2.3,0.4-3.4,0.7l-2.3-6.4l-7,2.9l3,6.1c-1,0.5-2,1.2-2.9,1.9l-4.6-5.1l-5.3,5.3l5.1,4.5c-0.7,0.9-1.4,1.8-1.8,2.9
		l-6.2-2.9l-2.9,6.9l6.5,2.3c-0.3,1.1-0.5,2.2-0.7,3.4l-6.8-0.3v7.5l6.8-0.3c0.1,1.1,0.4,2.3,0.7,3.4l-6.5,2.3l2.9,6.9l6.2-2.9
		c0.6,1,1.3,2,2,2.9l-5.1,4.5l5.3,5.3l4.6-5.1c1,0.7,1.9,1.4,2.9,1.9l-3,6.1l7,2.9l2.3-6.4c1.1,0.3,2.3,0.5,3.4,0.7l-0.4,6.8h7.6
		l-0.4-6.8c1.2-0.1,2.3-0.4,3.4-0.7l2.3,6.4l7-2.9l-3-6.1c1-0.5,2-1.2,2.9-1.9l4.6,5.1l5.3-5.3l-5.1-4.5c0.8-0.9,1.4-1.8,2-2.9
		l6.2,2.9l2.9-6.9l-6.5-2.3c0.3-1.1,0.5-2.2,0.7-3.4L134.1,141.2z M117,141c-3.9,18.8-31.9,15.7-31.7-3.5
		C86.2,114.5,120.9,118.4,117,141z"/>
	<polygon class="st2" points="450,120.6 475.4,145.7 475.4,121.9 479,121.9 479,154 453.6,129 453.6,152.7 450,152.7 	"/>
	<path class="st2" d="M402,137.3c0.1,20.8,33.9,20.7,34,0C435.8,116.5,402.1,116.5,402,137.3z M405.7,137.3
		c0.3-16.8,26.4-16.7,26.7,0C432.1,154,406,154,405.7,137.3z"/>
	<path class="st2" d="M386.9,127.9c-6.3-9.3-19.1,3.1-3.8,7.1c4.2,1.8,7.8,3.8,7.8,8.6c0.2,11.5-18.6,12.8-20.3,1.6l3.6-1
		c3.7,14,22.9-1,7.3-6.3c-20.1-5.8-2-25.8,8.5-11.7L386.9,127.9z"/>
	<path class="st2" d="M349.6,138.9c12.9-1.8,10.3-18.4-3.7-17h-4.7v30.7h3.6v-13.5h0.9l9.8,13.5h4.4L349.6,138.9z M344.8,136.2
		l-0.1-11c4.5,0,9.5,0,9.4,5.5C354.2,135.9,349.1,136.2,344.8,136.2z"/>
	<polygon class="st2" points="310.3,121.9 327.1,121.9 327.1,125.1 313.9,125.1 313.9,134.2 326.8,134.2 326.8,137.4 313.9,137.4 
		313.9,149.4 327.1,149.4 327.1,152.6 310.3,152.6 310.3,121.9 	"/>
	<polygon class="st2" points="254.4,127.1 254.4,133.9 264.1,133.9 264.1,139.1 254.4,139.1 254.4,147.5 264.4,147.5 264.4,152.7 
		248.3,152.7 248.3,121.9 264.4,121.9 264.4,127.1 254.4,127.1 	"/>
	<polygon class="st2" points="222.9,140.2 230.4,121.9 237,121.9 223.1,154.4 209.3,121.9 215.9,121.9 	"/>
	<rect x="191.9" y="121.9" class="st2" width="6.1" height="30.7"/>
	<polygon class="st2" points="171.7,147.5 180.3,147.5 180.3,152.7 165.6,152.7 165.6,121.9 171.7,121.9 	"/>
	<path class="st2" d="M293.9,124.4c-3.7-2.4-9.2-1.4-13.4-1.6v30.7h3.6V140c3.5,0,7.5,0.2,10.3-2.1
		C298.8,134.7,298.6,127.4,293.9,124.4z M284.1,136l0.1-11c4.4,0,9.8-0.2,9.8,5.4C294.1,136,288.5,136.2,284.1,136z"/>
</g>
</svg>
